HIERARCHY
ROOT root
{
	OFFSET	0	13.1	24.9
	CHANNELS 6  Xposition Yposition Zposition Xrotation Yrotation Zrotation
	JOINT spine_1
	{
		OFFSET	0	9.99999	0
		CHANNELS 3  Xrotation Yrotation Zrotation
		JOINT spine_2
		{
			OFFSET	0	112	-10
			CHANNELS 3  Xrotation Yrotation Zrotation
			JOINT spine_3
			{
				OFFSET	0	206.5	19.3
				CHANNELS 3  Xrotation Yrotation Zrotation
				JOINT spine_4
				{
					OFFSET	0	110.4	14.6
					CHANNELS 3  Xrotation Yrotation Zrotation
					JOINT neck_1
					{
						OFFSET	0	71.8	-50.3
						CHANNELS 3  Xrotation Yrotation Zrotation
						JOINT neck_2
						{
							OFFSET	0	86.2	-25.8
							CHANNELS 3  Xrotation Yrotation Zrotation
							JOINT head_ee
							{
								OFFSET	0	179.8	-8.7
								CHANNELS 3  Xrotation Yrotation Zrotation
								End Site
								{
									OFFSET	1	0	0
								}
							}
						}
					}
					JOINT left_clavicle
					{
						OFFSET	-43.2	22.4	-70.8
						CHANNELS 3  Xrotation Yrotation Zrotation
						JOINT left_shoulder
						{
							OFFSET	-93.9	-5.79999	48.7
							CHANNELS 3  Xrotation Yrotation Zrotation
							JOINT left_elbow
							{
								OFFSET	-291.4	-30.8	15.2
								CHANNELS 3  Xrotation Yrotation Zrotation
								JOINT left_lowarm_twist
								{
									OFFSET	-110.7	-3.89999	13.6
									CHANNELS 3  Xrotation Yrotation Zrotation
									JOINT left_hand
									{
										OFFSET	-110.7	-3.89999	13.6
										CHANNELS 3  Xrotation Yrotation Zrotation
										JOINT left_ee
										{
											OFFSET	-80.8	-5.10001	12.1
											CHANNELS 3  Xrotation Yrotation Zrotation
											End Site
											{
												OFFSET	1	0	0
											}
										}
									}
								}
							}
						}
					}
					JOINT right_clavicle
					{
						OFFSET	43.2	22.4	-70.8
						CHANNELS 3  Xrotation Yrotation Zrotation
						JOINT right_shoulder
						{
							OFFSET	93.9	-5.79999	48.7
							CHANNELS 3  Xrotation Yrotation Zrotation
							JOINT right_elbow
							{
								OFFSET	291.4	-30.8	15.2
								CHANNELS 3  Xrotation Yrotation Zrotation
								JOINT right_lowarm_twist
								{
									OFFSET	110.7	-3.89999	13.6
									CHANNELS 3  Xrotation Yrotation Zrotation
									JOINT right_hand
									{
										OFFSET	110.7	-3.89999	13.6
										CHANNELS 3  Xrotation Yrotation Zrotation
										JOINT right_ee
										{
											OFFSET	80.8	-5.10001	12.1
											CHANNELS 3  Xrotation Yrotation Zrotation
											End Site
											{
												OFFSET	1	0	0
											}
										}
									}
								}
							}
						}
					}
				}
			}
		}
	}
	JOINT left_hip
	{
		OFFSET	-82.8	-127.5	0.300001
		CHANNELS 3  Xrotation Yrotation Zrotation
		JOINT left_knee
		{
			OFFSET	-28.2	-396.7	2.2
			CHANNELS 3  Xrotation Yrotation Zrotation
			JOINT left_ankle
			{
				OFFSET	-11.7	-411.3	35.4
				CHANNELS 3  Xrotation Yrotation Zrotation
				JOINT left_toes
				{
					OFFSET	0	-60	-88.6
					CHANNELS 3  Xrotation Yrotation Zrotation
					JOINT left_foot_ee
					{
						OFFSET	-22.5	-16.5	-42.2
						CHANNELS 3  Xrotation Yrotation Zrotation
						End Site
						{
							OFFSET	1	0	0
						}
					}
				}
			}
		}
	}
	JOINT right_hip
	{
		OFFSET	82.8	-127.5	0.300001
		CHANNELS 3  Xrotation Yrotation Zrotation
		JOINT right_knee
		{
			OFFSET	28.2	-396.7	2.2
			CHANNELS 3  Xrotation Yrotation Zrotation
			JOINT right_ankle
			{
				OFFSET	11.7	-411.3	35.4
				CHANNELS 3  Xrotation Yrotation Zrotation
				JOINT right_toes
				{
					OFFSET	0	-60	-88.6
					CHANNELS 3  Xrotation Yrotation Zrotation
					JOINT right_foot_ee
					{
						OFFSET	22.5	-16.5	-42.2
						CHANNELS 3  Xrotation Yrotation Zrotation
						End Site
						{
							OFFSET	1	0	0
						}
					}
				}
			}
		}
	}
}
MOTION
Frames: 8
Frame Time: 0.02
391.555 721.904 -1204.45 -179.669251267 -36.931426533 175.868623048 -2.16951 0.534937 3.22206 -2.16379 0.328936 3.24953 -2.13864 -0.482602 3.23031 -2.1532 0.0333389 3.26595 0.628196 6.31668 -15.4945 2.10677 23.9355 -16.6094 -0.0 0.0 -0.0 5.45397 7.22705 10.6464 -2.00527 11.524 57.6804 0.900575 -24.0422 0.191774 14.9694 0.282497 -1.88592 0.596123 -8.6478 0.352986 -0.0 0.0 -0.0 13.1761 25.3351 -26.1615 0.473572 -9.01473 -60.9918 0.451602 12.6102 -0.0498985 -2.79708 0.106912 -0.341121 1.03503 23.5393 3.19751 0.0 0.0 0.0 5.88699 26.622 5.86673 -0.9978 0.0397971 0.147952 22.8208 4.77784 -3.07621 -7.25072 0.0 0.0 -0.0 0.0 -0.0 1.34858 -14.4234 -2.28657 6.10501 0.299096 0.888373 15.134 1.06898 2.13408 -27.1368 0.0 0.0 0.0 0.0 0.0 
391.555 721.904 -1204.45 -179.674374683 -35.7148561497 175.859974064 -2.16951 0.534937 3.22206 -2.16379 0.328936 3.24953 -2.13864 -0.482602 3.23031 -2.1532 0.0333389 3.26595 0.628196 6.31668 -15.4945 2.10677 23.9355 -16.6094 -0.0 0.0 -0.0 5.45397 7.22705 10.6464 -2.00527 11.524 57.6804 0.900575 -24.0422 0.191774 14.9694 0.282497 -1.88592 0.596123 -8.6478 0.352986 -0.0 0.0 -0.0 13.1761 25.3351 -26.1615 0.473572 -9.01473 -60.9918 0.451602 12.6102 -0.0498985 -2.79708 0.106912 -0.341121 1.03503 23.5393 3.19751 0.0 0.0 0.0 5.88699 26.622 5.86673 -0.9978 0.0397971 0.147952 22.8208 4.77784 -3.07621 -7.25072 0.0 0.0 -0.0 0.0 -0.0 1.34858 -14.4234 -2.28657 6.10501 0.299096 0.888373 15.134 1.06898 2.13408 -27.1368 0.0 0.0 0.0 0.0 0.0 
391.555 721.904 -1204.45 -179.677258223 -34.9965747289 175.854990951 -2.16951 0.534937 3.22206 -2.16379 0.328936 3.24953 -2.13864 -0.482602 3.23031 -2.1532 0.0333389 3.26595 0.628196 6.31668 -15.4945 2.10677 23.9355 -16.6094 -0.0 0.0 -0.0 5.45397 7.22705 10.6464 -2.00527 11.524 57.6804 0.900575 -24.0422 0.191774 14.9694 0.282497 -1.88592 0.596123 -8.6478 0.352986 -0.0 0.0 -0.0 13.1761 25.3351 -26.1615 0.473572 -9.01473 -60.9918 0.451602 12.6102 -0.0498985 -2.79708 0.106912 -0.341121 1.03503 23.5393 3.19751 0.0 0.0 0.0 5.88699 26.622 5.86673 -0.9978 0.0397971 0.147952 22.8208 4.77784 -3.07621 -7.25072 0.0 0.0 -0.0 0.0 -0.0 1.34858 -14.4234 -2.28657 6.10501 0.299096 0.888373 15.134 1.06898 2.13408 -27.1368 0.0 0.0 0.0 0.0 0.0 
391.555 721.904 -1204.45 -179.683659717 -33.3045983372 175.84358885 -2.16951 0.534937 3.22206 -2.16379 0.328936 3.24953 -2.13864 -0.482602 3.23031 -2.1532 0.0333389 3.26595 0.628196 6.31668 -15.4945 2.10677 23.9355 -16.6094 -0.0 0.0 -0.0 5.45397 7.22705 10.6464 -2.00527 11.524 57.6804 0.900575 -24.0422 0.191774 14.9694 0.282497 -1.88592 0.596123 -8.6478 0.352986 -0.0 0.0 -0.0 13.1761 25.3351 -26.1615 0.473572 -9.01473 -60.9918 0.451602 12.6102 -0.0498985 -2.79708 0.106912 -0.341121 1.03503 23.5393 3.19751 0.0 0.0 0.0 5.88699 26.622 5.86673 -0.9978 0.0397971 0.147952 22.8208 4.77784 -3.07621 -7.25072 0.0 0.0 -0.0 0.0 -0.0 1.34858 -14.4234 -2.28657 6.10501 0.299096 0.888373 15.134 1.06898 2.13408 -27.1368 0.0 0.0 0.0 0.0 0.0 
391.02363555 736.184 -1203.92516496 -178.808809175 -38.9615395859 178.538998899 -1.87517 0.436514 3.58203 -1.86806 0.207847 3.60251 -1.84794 -0.669372 3.54594 -1.86547 -0.101336 3.60707 1.82983 3.7607 -15.1397 3.08805 19.3123 -16.6515 -0.0 0.0 -0.0 2.48999 4.66543 5.13394 -3.80652 11.0304 62.163 0.754484 -20.4932 0.136388 16.7314 0.283097 -2.11096 1.13216 -8.04477 4.23265 -0.0 0.0 -0.0 9.78983 25.41 -18.4559 -3.44697 -9.49029 -68.1488 0.39838 11.1638 -0.0389346 -2.17648 0.0817535 -0.265886 1.37055 23.9749 1.20584 0.0 0.0 0.0 6.78536 23.9838 3.15332 -1.68496 0.0657014 0.250226 18.8694 6.29742 -2.58991 -6.57475 0.0 0.0 -0.0 0.0 -0.0 2.71766 -17.5589 -3.8239 5.11706 0.244283 0.746802 9.78163 0.128453 1.40517 -26.4123 0.0 0.0 0.0 0.0 0.0 
391.026827278 736.184 -1203.92195306 -178.802918541 -39.3088383211 178.548331997 -1.87517 0.436514 3.58203 -1.86806 0.207847 3.60251 -1.84794 -0.669372 3.54594 -1.86547 -0.101336 3.60707 1.82983 3.7607 -15.1397 3.08805 19.3123 -16.6515 -0.0 0.0 -0.0 2.48999 4.66543 5.13394 -3.80652 11.0304 62.163 0.754484 -20.4932 0.136388 16.7314 0.283097 -2.11096 1.13216 -8.04477 4.23265 -0.0 0.0 -0.0 9.78983 25.41 -18.4559 -3.44697 -9.49029 -68.1488 0.39838 11.1638 -0.0389346 -2.17648 0.0817535 -0.265886 1.37055 23.9749 1.20584 0.0 0.0 0.0 6.78536 23.9838 3.15332 -1.68496 0.0657014 0.250226 18.8694 6.29742 -2.58991 -6.57475 0.0 0.0 -0.0 0.0 -0.0 2.71766 -17.5589 -3.8239 5.11706 0.244283 0.746802 9.78163 0.128453 1.40517 -26.4123 0.0 0.0 0.0 0.0 0.0 
391.03008114 736.184 -1203.91871835 -178.796844744 -39.6607424624 178.557883849 -1.87517 0.436514 3.58203 -1.86806 0.207847 3.60251 -1.84794 -0.669372 3.54594 -1.86547 -0.101336 3.60707 1.82983 3.7607 -15.1397 3.08805 19.3123 -16.6515 -0.0 0.0 -0.0 2.48999 4.66543 5.13394 -3.80652 11.0304 62.163 0.754484 -20.4932 0.136388 16.7314 0.283097 -2.11096 1.13216 -8.04477 4.23265 -0.0 0.0 -0.0 9.78983 25.41 -18.4559 -3.44697 -9.49029 -68.1488 0.39838 11.1638 -0.0389346 -2.17648 0.0817535 -0.265886 1.37055 23.9749 1.20584 0.0 0.0 0.0 6.78536 23.9838 3.15332 -1.68496 0.0657014 0.250226 18.8694 6.29742 -2.58991 -6.57475 0.0 0.0 -0.0 0.0 -0.0 2.71766 -17.5589 -3.8239 5.11706 0.244283 0.746802 9.78163 0.128453 1.40517 -26.4123 0.0 0.0 0.0 0.0 0.0 
391.036090083 736.184 -1203.91284779 -178.785442949 -40.3050628483 178.575627923 -1.87517 0.436514 3.58203 -1.86806 0.207847 3.60251 -1.84794 -0.669372 3.54594 -1.86547 -0.101336 3.60707 1.82983 3.7607 -15.1397 3.08805 19.3123 -16.6515 -0.0 0.0 -0.0 2.48999 4.66543 5.13394 -3.80652 11.0304 62.163 0.754484 -20.4932 0.136388 16.7314 0.283097 -2.11096 1.13216 -8.04477 4.23265 -0.0 0.0 -0.0 9.78983 25.41 -18.4559 -3.44697 -9.49029 -68.1488 0.39838 11.1638 -0.0389346 -2.17648 0.0817535 -0.265886 1.37055 23.9749 1.20584 0.0 0.0 0.0 6.78536 23.9838 3.15332 -1.68496 0.0657014 0.250226 18.8694 6.29742 -2.58991 -6.57475 0.0 0.0 -0.0 0.0 -0.0 2.71766 -17.5589 -3.8239 5.11706 0.244283 0.746802 9.78163 0.128453 1.40517 -26.4123 0.0 0.0 0.0 0.0 0.0 
